# xmcd CD database file
#
# Track frame offsets:
#	150
#	22200
#	42975
#
# Disc length: 864 seconds
#
# Revision: 1
# Processed by: cddbd v1.5.1PL0 Copyright (c) Steve Scherf et al.
# Submitted via: CDex 1.51
#
DISCID=22035e03
DTITLE=工藤静香 - きらら
DYEAR=1998
DGENRE=JPop
TTITLE0=きらら
TTITLE1=in the sky
TTITLE2=きらら(オリジナルカラオケ)
EXTD=YEAR: 1998
EXTT0=
EXTT1=
EXTT2=
PLAYORDER=
